<svg width="242" height="230" viewBox="0 0 242 230" fill="none" xmlns="http://www.w3.org/2000/svg">
<path d="M189.807 230C187.787 229.953 185.825 229.324 184.157 228.189L120.952 182.437L57.7468 228.189C56.1067 229.382 54.1271 230.025 52.0958 230.025C50.0644 230.025 48.086 229.382 46.4459 228.189C44.8115 227.001 43.598 225.327 42.9786 223.409C42.3592 221.491 42.3659 219.427 42.9985 217.514L67.1317 143.547L3.92651 97.7954C2.28488 96.6125 1.06165 94.9414 0.434656 93.0231C-0.192334 91.1049 -0.191109 89.0384 0.436994 87.1205C1.0651 85.2027 2.2877 83.5326 3.93001 82.3506C5.57232 81.1686 7.54969 80.5358 9.57636 80.543H87.7215L111.854 6.57692C112.483 4.66993 113.702 3.00914 115.336 1.83201C116.97 0.654878 118.935 0.0215454 120.952 0.0215454C122.969 0.0215454 124.934 0.654878 126.568 1.83201C128.202 3.00914 129.419 4.66993 130.049 6.57692L154.182 80.543H232.136C234.154 80.5559 236.117 81.2031 237.744 82.3925C239.37 83.5819 240.579 85.2526 241.195 87.1659C241.811 89.0791 241.803 91.1369 241.173 93.0458C240.544 94.9548 239.325 96.6173 237.69 97.7954L174.485 143.547L198.618 217.514C199.25 219.427 199.257 221.491 198.638 223.409C198.018 225.327 196.805 227.001 195.17 228.189C193.527 229.373 191.549 230.007 189.521 230H189.807ZM120.952 161.086C122.975 161.116 124.942 161.746 126.602 162.897L171.612 195.495L154.374 142.785C153.774 140.874 153.793 138.824 154.429 136.925C155.065 135.026 156.285 133.375 157.917 132.205L202.927 99.6064H147.288C145.187 99.7087 143.111 99.1202 141.38 97.9315C139.65 96.7429 138.36 95.0202 137.711 93.0295L120.473 40.3189L103.331 93.0295C102.682 95.0202 101.391 96.7429 99.6607 97.9315C97.9299 99.1202 95.8551 99.7087 93.7548 99.6064H38.1144L83.2196 132.205C84.8347 133.387 86.0368 135.044 86.6554 136.943C87.2739 138.841 87.2786 140.884 86.6682 142.785L69.4299 195.495L114.439 162.897C116.107 161.761 118.071 161.133 120.09 161.086H120.952Z" fill="#EBEBEB"/>
</svg>
